FFmpeg version SVN-r25716, Copyright (c) 2000-2010 the FFmpeg developers  built on Nov 10 2010 12:23:18 with gcc 4.1.2 20080704 (Red Hat 4.1.2-48)  configuration: --enable-libmp3lame --enable-shared --disable-mmx --arch=x86_64  libavutil     50.33. 0 / 50.33. 0  libavcore      0.12. 1 /  0.12. 1  libavcodec    52.94. 4 / 52.94. 4  libavformat   52.84. 0 / 52.84. 0  libavdevice   52. 2. 2 / 52. 2. 2  libavfilter    1.59. 0 /  1.59. 0  libswscale     0.12. 0 /  0.12. 0[mov,mp4,m4a,3gp,3g2,mj2 @ 0x91f04c0] multiple edit list entries, a/v desync might occur, patch welcomeSeems stream 0 codec frame rate differs from container frame rate: 600.00 (600/1) -> 15.00 (15/1)Input #0, mov,mp4,m4a,3gp,3g2,mj2, from '/RAID10/data/converted_video_files/11835.mov':  Duration: 00:00:07.40, start: 0.000000, bitrate: 8018 kb/s    Stream #0.0(eng): Video: svq3, yuvj420p, 475x450, 8014 kb/s, 15 fps, 15 tbr, 600 tbn, 600 tbc[buffer @ 0x91f38d0] w:475 h:450 pixfmt:yuvj420p[ffsink @ 0x91f60f0] auto-inserting filter 'auto-inserted scaler 0' between the filter 'src' and the filter 'out'[scale @ 0x91f6410] w:475 h:450 fmt:yuvj420p -> w:475 h:450 fmt:yuv420p flags:0x4Output #0, flv, to '/RAID10/data/converted_video_files/11835.flv':  Metadata:    encoder         : Lavf52.84.0    Stream #0.0(eng): Video: flv, yuv420p, 475x450, q=2-31, 600 kb/s, 1k tbn, 24 tbcStream mapping:  Stream #0.0 -> #0.0Press [q] to stop encodingframe=   31 fps=  0 q=9.0 size=     246kB time=2.04 bitrate= 988.5kbits/s    frame=   60 fps= 57 q=9.4 size=     358kB time=3.96 bitrate= 741.6kbits/s    frame=  102 fps= 66 q=10.2 size=     535kB time=6.75 bitrate= 648.9kbits/s    frame=  111 fps= 63 q=9.6 Lsize=     575kB time=7.33 bitrate= 642.4kbits/s    video:573kB audio:0kB global headers:0kB muxing overhead 0.338371%